# xmcd
#
# Track frame offsets: 
#        150
#        13234
#        24477
#        37655
#        49325
#        61602
#        71855
#        83215
#        94885
#        107762
#        120600
#        132160
#
# Disc length: 1928 seconds
#
# Revision: 1
# Processed by: cddbd v1.5.2PL0 Copyright (c) Steve Scherf et al.
# Submitted via: ExactAudioCopy v1.0b3
#
DISCID=9b07860c
DTITLE=Various Artist - Country Gold 1955-1959
DYEAR=2003
DGENRE=Country
TTITLE0=Jimmie Rodgers - In The Jailhouse Now No 2
TTITLE1=Elvis Presley And The Jordanaires - I Forgot To Remember To Fo
TTITLE1=rget
TTITLE2=Jerry Lee Lewis - You Win Again
TTITLE3=Patsy Cline - Walkin' After Midnight
TTITLE4=Johnny Cash - I Walk The Line
TTITLE5=Everly Brothers - Bird Dog
TTITLE6=Eddy Arnold - The Cattle Call
TTITLE7=Don Gibson - I Can't Stop Lovin You
TTITLE8=Jim Reeves - Four Walls
TTITLE9=Browns - The Three Bells (Les Trois Cloches)
TTITLE10=Hank Locklin - Send Me The Pillow You Dream On
TTITLE11=Porter Wagoner - A Satisfied Mind
EXTD=
EXTT0=
EXTT1=
EXTT2=
EXTT3=
EXTT4=
EXTT5=
EXTT6=
EXTT7=
EXTT8=
EXTT9=
EXTT10=
EXTT11=
PLAYORDER=
